<svg width="25" height="24" viewBox="0 0 25 24" fill="none" xmlns="http://www.w3.org/2000/svg">
<path d="M6.42457 23H1.8634V8.31173H6.42457V23ZM4.14153 6.30811C2.68302 6.30811 1.5 5.10005 1.5 3.64153C1.5 2.94095 1.7783 2.26907 2.27369 1.77369C2.76907 1.2783 3.44095 1 4.14153 1C4.84211 1 5.51399 1.2783 6.00938 1.77369C6.50476 2.26907 6.78306 2.94095 6.78306 3.64153C6.78306 5.10005 5.59956 6.30811 4.14153 6.30811ZM23.4956 23H18.9442V15.8498C18.9442 14.1458 18.9099 11.9605 16.5728 11.9605C14.2014 11.9605 13.838 13.8118 13.838 15.7271V23H9.28169V8.31173H13.6563V10.3153H13.7201C14.329 9.1613 15.8165 7.94341 18.0357 7.94341C22.6519 7.94341 23.5005 10.9832 23.5005 14.9315V23H23.4956Z" fill="#565656"/>
</svg>
