<svg  fill="none" xmlns="http://www.w3.org/2000/svg">
<symbol id='logo' width="194" height="34" viewBox="0 0 194 34">
<path d="M44.132 30.0001C43.712 30.0001 43.362 29.8601 43.082 29.5801C42.8254 29.3001 42.697 28.9618 42.697 28.5651V6.9001C42.697 6.50343 42.8254 6.17676 43.082 5.9201C43.362 5.6401 43.7004 5.5001 44.097 5.5001H56.382C56.7787 5.5001 57.117 5.62843 57.397 5.8851C57.677 6.14176 57.817 6.46843 57.817 6.8651C57.817 7.23843 57.677 7.55343 57.397 7.8101C57.117 8.06676 56.7787 8.1951 56.382 8.1951H45.357L45.567 7.9151V16.4901L45.392 16.1051H54.807C55.2037 16.1051 55.542 16.2451 55.822 16.5251C56.102 16.7818 56.242 17.1084 56.242 17.5051C56.242 17.8551 56.102 18.1701 55.822 18.4501C55.542 18.7068 55.2037 18.8351 54.807 18.8351H45.322L45.567 18.5201V28.5651C45.567 28.9618 45.427 29.3001 45.147 29.5801C44.867 29.8601 44.5287 30.0001 44.132 30.0001Z" fill="#16133D"/>
<path d="M63.0894 30.0001C62.6928 30.0001 62.3544 29.8601 62.0744 29.5801C61.8178 29.3001 61.6894 28.9618 61.6894 28.5651V13.3051C61.6894 12.9084 61.8178 12.5818 62.0744 12.3251C62.3544 12.0451 62.6928 11.9051 63.0894 11.9051C63.5094 11.9051 63.8478 12.0451 64.1044 12.3251C64.3611 12.5818 64.4894 12.9084 64.4894 13.3051V17.9251L64.0694 17.1901C64.2094 16.4668 64.4544 15.7668 64.8044 15.0901C65.1778 14.3901 65.6444 13.7718 66.2044 13.2351C66.7644 12.6751 67.4061 12.2434 68.1294 11.9401C68.8528 11.6134 69.6461 11.4501 70.5094 11.4501C71.0228 11.4501 71.4894 11.5784 71.9094 11.8351C72.3528 12.0684 72.5744 12.4068 72.5744 12.8501C72.5744 13.3401 72.4461 13.7018 72.1894 13.9351C71.9328 14.1684 71.6411 14.2851 71.3144 14.2851C71.0111 14.2851 70.7194 14.2268 70.4394 14.1101C70.1594 13.9701 69.8094 13.9001 69.3894 13.9001C68.8061 13.9001 68.2228 14.0634 67.6394 14.3901C67.0794 14.6934 66.5544 15.1368 66.0644 15.7201C65.5978 16.3034 65.2128 16.9684 64.9094 17.7151C64.6294 18.4384 64.4894 19.2201 64.4894 20.0601V28.5651C64.4894 28.9618 64.3494 29.3001 64.0694 29.5801C63.8128 29.8601 63.4861 30.0001 63.0894 30.0001Z" fill="#16133D"/>
<path d="M83.3162 30.3501C81.4495 30.3501 79.8162 29.9534 78.4162 29.1601C77.0162 28.3668 75.9195 27.2818 75.1262 25.9051C74.3562 24.5051 73.9712 22.8951 73.9712 21.0751C73.9712 19.0451 74.3678 17.3184 75.1612 15.8951C75.9778 14.4484 77.0278 13.3518 78.3112 12.6051C79.6178 11.8351 80.9945 11.4501 82.4412 11.4501C83.5145 11.4501 84.5528 11.6484 85.5562 12.0451C86.5595 12.4418 87.4462 13.0251 88.2162 13.7951C88.9862 14.5418 89.6045 15.4518 90.0712 16.5251C90.5378 17.5751 90.7828 18.7534 90.8062 20.0601C90.8062 20.4334 90.6662 20.7484 90.3862 21.0051C90.1062 21.2618 89.7795 21.3901 89.4062 21.3901H75.5812L74.9512 18.9751H88.4262L87.8662 19.4651V18.6951C87.7728 17.7384 87.4462 16.9218 86.8862 16.2451C86.3495 15.5451 85.6845 15.0084 84.8912 14.6351C84.1212 14.2618 83.3045 14.0751 82.4412 14.0751C81.7412 14.0751 81.0412 14.2034 80.3412 14.4601C79.6645 14.6934 79.0462 15.0901 78.4862 15.6501C77.9495 16.1868 77.5062 16.8868 77.1562 17.7501C76.8295 18.6134 76.6662 19.6518 76.6662 20.8651C76.6662 22.2184 76.9345 23.4084 77.4712 24.4351C78.0312 25.4618 78.8012 26.2784 79.7812 26.8851C80.7612 27.4684 81.9045 27.7601 83.2112 27.7601C84.0278 27.7601 84.7395 27.6551 85.3462 27.4451C85.9528 27.2351 86.4778 26.9784 86.9212 26.6751C87.3645 26.3484 87.7378 26.0218 88.0412 25.6951C88.3445 25.4851 88.6362 25.3801 88.9162 25.3801C89.2662 25.3801 89.5462 25.4968 89.7562 25.7301C89.9895 25.9634 90.1062 26.2434 90.1062 26.5701C90.1062 26.9668 89.9195 27.3168 89.5462 27.6201C88.8928 28.3434 88.0062 28.9851 86.8862 29.5451C85.7662 30.0818 84.5762 30.3501 83.3162 30.3501Z" fill="#16133D"/>
<path d="M103.38 30.3501C101.513 30.3501 99.8796 29.9534 98.4796 29.1601C97.0796 28.3668 95.983 27.2818 95.1896 25.9051C94.4196 24.5051 94.0346 22.8951 94.0346 21.0751C94.0346 19.0451 94.4313 17.3184 95.2246 15.8951C96.0413 14.4484 97.0913 13.3518 98.3746 12.6051C99.6813 11.8351 101.058 11.4501 102.505 11.4501C103.578 11.4501 104.616 11.6484 105.62 12.0451C106.623 12.4418 107.51 13.0251 108.28 13.7951C109.05 14.5418 109.668 15.4518 110.135 16.5251C110.601 17.5751 110.846 18.7534 110.87 20.0601C110.87 20.4334 110.73 20.7484 110.45 21.0051C110.17 21.2618 109.843 21.3901 109.47 21.3901H95.6446L95.0146 18.9751H108.49L107.93 19.4651V18.6951C107.836 17.7384 107.51 16.9218 106.95 16.2451C106.413 15.5451 105.748 15.0084 104.955 14.6351C104.185 14.2618 103.368 14.0751 102.505 14.0751C101.805 14.0751 101.105 14.2034 100.405 14.4601C99.728 14.6934 99.1096 15.0901 98.5496 15.6501C98.013 16.1868 97.5696 16.8868 97.2196 17.7501C96.893 18.6134 96.7296 19.6518 96.7296 20.8651C96.7296 22.2184 96.998 23.4084 97.5346 24.4351C98.0946 25.4618 98.8646 26.2784 99.8446 26.8851C100.825 27.4684 101.968 27.7601 103.275 27.7601C104.091 27.7601 104.803 27.6551 105.41 27.4451C106.016 27.2351 106.541 26.9784 106.985 26.6751C107.428 26.3484 107.801 26.0218 108.105 25.6951C108.408 25.4851 108.7 25.3801 108.98 25.3801C109.33 25.3801 109.61 25.4968 109.82 25.7301C110.053 25.9634 110.17 26.2434 110.17 26.5701C110.17 26.9668 109.983 27.3168 109.61 27.6201C108.956 28.3434 108.07 28.9851 106.95 29.5451C105.83 30.0818 104.64 30.3501 103.38 30.3501Z" fill="#16133D"/>
<path d="M123.828 11.6251C125.368 11.6251 126.581 11.9634 127.468 12.6401C128.378 13.2934 129.02 14.1801 129.393 15.3001C129.79 16.3968 129.988 17.6218 129.988 18.9751V28.5651C129.988 28.9618 129.848 29.3001 129.568 29.5801C129.311 29.8601 128.985 30.0001 128.588 30.0001C128.191 30.0001 127.853 29.8601 127.573 29.5801C127.316 29.3001 127.188 28.9618 127.188 28.5651V18.9751C127.188 18.0884 127.06 17.2951 126.803 16.5951C126.546 15.8718 126.115 15.3001 125.508 14.8801C124.925 14.4368 124.12 14.2151 123.093 14.2151C122.136 14.2151 121.261 14.4368 120.468 14.8801C119.675 15.3001 119.045 15.8718 118.578 16.5951C118.111 17.2951 117.878 18.0884 117.878 18.9751V28.5651C117.878 28.9618 117.738 29.3001 117.458 29.5801C117.201 29.8601 116.875 30.0001 116.478 30.0001C116.081 30.0001 115.743 29.8601 115.463 29.5801C115.206 29.3001 115.078 28.9618 115.078 28.5651V5.5001C115.078 5.10343 115.206 4.77676 115.463 4.5201C115.743 4.2401 116.081 4.1001 116.478 4.1001C116.898 4.1001 117.236 4.2401 117.493 4.5201C117.75 4.77676 117.878 5.10343 117.878 5.5001V15.9651L117.178 16.7351C117.295 16.1284 117.551 15.5218 117.948 14.9151C118.345 14.2851 118.846 13.7251 119.453 13.2351C120.06 12.7451 120.736 12.3601 121.483 12.0801C122.23 11.7768 123.011 11.6251 123.828 11.6251Z" fill="#16133D"/>
<path d="M150.086 11.7301C150.482 11.7301 150.809 11.8701 151.066 12.1501C151.346 12.4068 151.486 12.7334 151.486 13.1301V28.5651C151.486 28.9618 151.346 29.3001 151.066 29.5801C150.809 29.8601 150.482 30.0001 150.086 30.0001C149.666 30.0001 149.327 29.8601 149.071 29.5801C148.814 29.3001 148.686 28.9618 148.686 28.5651V25.2401L149.351 25.1701C149.351 25.6834 149.176 26.2434 148.826 26.8501C148.476 27.4568 147.997 28.0284 147.391 28.5651C146.784 29.0784 146.061 29.5101 145.221 29.8601C144.404 30.1868 143.517 30.3501 142.561 30.3501C140.974 30.3501 139.551 29.9418 138.291 29.1251C137.031 28.2851 136.027 27.1534 135.281 25.7301C134.557 24.3068 134.196 22.6851 134.196 20.8651C134.196 19.0218 134.557 17.4001 135.281 16.0001C136.027 14.5768 137.031 13.4684 138.291 12.6751C139.551 11.8584 140.951 11.4501 142.491 11.4501C143.494 11.4501 144.427 11.6134 145.291 11.9401C146.154 12.2668 146.901 12.7101 147.531 13.2701C148.184 13.8301 148.686 14.4484 149.036 15.1251C149.409 15.8018 149.596 16.4784 149.596 17.1551L148.686 16.9451V13.1301C148.686 12.7334 148.814 12.4068 149.071 12.1501C149.327 11.8701 149.666 11.7301 150.086 11.7301ZM142.876 27.7601C144.042 27.7601 145.069 27.4568 145.956 26.8501C146.866 26.2434 147.566 25.4268 148.056 24.4001C148.569 23.3501 148.826 22.1718 148.826 20.8651C148.826 19.5818 148.569 18.4268 148.056 17.4001C147.566 16.3501 146.866 15.5334 145.956 14.9501C145.069 14.3434 144.042 14.0401 142.876 14.0401C141.732 14.0401 140.706 14.3318 139.796 14.9151C138.909 15.4984 138.209 16.3034 137.696 17.3301C137.182 18.3568 136.926 19.5351 136.926 20.8651C136.926 22.1718 137.171 23.3501 137.661 24.4001C138.174 25.4268 138.874 26.2434 139.761 26.8501C140.671 27.4568 141.709 27.7601 142.876 27.7601Z" fill="#16133D"/>
<path d="M165.67 11.4501C167.256 11.4501 168.505 11.7768 169.415 12.4301C170.325 13.0834 170.966 13.9584 171.34 15.0551C171.736 16.1518 171.935 17.3768 171.935 18.7301V28.5651C171.935 28.9618 171.795 29.3001 171.515 29.5801C171.258 29.8601 170.931 30.0001 170.535 30.0001C170.138 30.0001 169.8 29.8601 169.52 29.5801C169.263 29.3001 169.135 28.9618 169.135 28.5651V18.8001C169.135 17.9134 168.995 17.1201 168.715 16.4201C168.458 15.6968 168.015 15.1251 167.385 14.7051C166.778 14.2618 165.938 14.0401 164.865 14.0401C163.885 14.0401 162.986 14.2618 162.17 14.7051C161.353 15.1251 160.7 15.6968 160.21 16.4201C159.72 17.1201 159.475 17.9134 159.475 18.8001V28.5651C159.475 28.9618 159.335 29.3001 159.055 29.5801C158.798 29.8601 158.471 30.0001 158.075 30.0001C157.678 30.0001 157.34 29.8601 157.06 29.5801C156.803 29.3001 156.675 28.9618 156.675 28.5651V13.3051C156.675 12.9084 156.803 12.5818 157.06 12.3251C157.34 12.0451 157.678 11.9051 158.075 11.9051C158.495 11.9051 158.833 12.0451 159.09 12.3251C159.346 12.5818 159.475 12.9084 159.475 13.3051V15.7901L158.775 16.5601C158.891 15.9534 159.16 15.3468 159.58 14.7401C160 14.1101 160.525 13.5501 161.155 13.0601C161.785 12.5701 162.485 12.1851 163.255 11.9051C164.025 11.6018 164.83 11.4501 165.67 11.4501Z" fill="#16133D"/>
<path d="M192.024 4.1001C192.421 4.1001 192.748 4.2401 193.004 4.5201C193.284 4.77676 193.424 5.10343 193.424 5.5001V28.5651C193.424 28.9618 193.284 29.3001 193.004 29.5801C192.748 29.8601 192.421 30.0001 192.024 30.0001C191.604 30.0001 191.266 29.8601 191.009 29.5801C190.753 29.3001 190.624 28.9618 190.624 28.5651V25.2401L191.289 24.9951C191.289 25.5551 191.114 26.1501 190.764 26.7801C190.414 27.3868 189.936 27.9584 189.329 28.4951C188.723 29.0318 187.999 29.4751 187.159 29.8251C186.343 30.1751 185.456 30.3501 184.499 30.3501C182.936 30.3501 181.513 29.9418 180.229 29.1251C178.969 28.3084 177.966 27.1884 177.219 25.7651C176.496 24.3418 176.134 22.7201 176.134 20.9001C176.134 19.0568 176.496 17.4234 177.219 16.0001C177.966 14.5768 178.969 13.4684 180.229 12.6751C181.489 11.8584 182.889 11.4501 184.429 11.4501C185.409 11.4501 186.331 11.6134 187.194 11.9401C188.058 12.2668 188.804 12.7101 189.434 13.2701C190.088 13.8301 190.601 14.4484 190.974 15.1251C191.348 15.8018 191.534 16.4784 191.534 17.1551L190.624 16.9451V5.5001C190.624 5.10343 190.753 4.77676 191.009 4.5201C191.266 4.2401 191.604 4.1001 192.024 4.1001ZM184.814 27.7601C185.981 27.7601 187.008 27.4684 187.894 26.8851C188.804 26.2784 189.504 25.4618 189.994 24.4351C190.508 23.3851 190.764 22.2068 190.764 20.9001C190.764 19.5701 190.508 18.3918 189.994 17.3651C189.504 16.3384 188.804 15.5334 187.894 14.9501C187.008 14.3434 185.981 14.0401 184.814 14.0401C183.671 14.0401 182.644 14.3434 181.734 14.9501C180.848 15.5334 180.148 16.3384 179.634 17.3651C179.121 18.3918 178.864 19.5701 178.864 20.9001C178.864 22.1834 179.121 23.3501 179.634 24.4001C180.148 25.4268 180.848 26.2434 181.734 26.8501C182.644 27.4568 183.671 27.7601 184.814 27.7601Z" fill="#16133D"/>
<path fill-rule="evenodd" clip-rule="evenodd" d="M29.0148 17C29.1638 16.9 29.3102 16.7954 29.4535 16.6861C30.8437 15.6267 31.8961 14.1814 32.4812 12.5279C33.0663 10.8744 33.1587 9.08471 32.747 7.37901C32.3353 5.67331 31.4375 4.12593 30.1639 2.92715C28.8903 1.72837 27.2965 0.930465 25.5784 0.631544C23.8604 0.332622 22.093 0.545721 20.4937 1.24463C18.8944 1.94355 17.5328 3.09781 16.5763 4.56547C16.5506 4.60502 16.5251 4.64476 16.5 4.68467C16.4749 4.64477 16.4494 4.60504 16.4237 4.56549C15.4672 3.09783 14.1056 1.94357 12.5063 1.24466C10.907 0.545744 9.13961 0.332646 7.42157 0.631567C5.70353 0.930488 4.10972 1.7284 2.83612 2.92717C1.56252 4.12595 0.664666 5.67333 0.252961 7.37903C-0.158743 9.08473 -0.0663462 10.8744 0.518791 12.5279C1.10393 14.1814 2.15629 15.6268 3.54648 16.6861C3.68983 16.7954 3.83613 16.9 3.98516 17C3.83613 17.1 3.68983 17.2046 3.54648 17.3139C2.15629 18.3732 1.10393 19.8185 0.518792 21.4721C-0.0663452 23.1256 -0.158742 24.9153 0.252962 26.621C0.664667 28.3267 1.56252 29.874 2.83612 31.0728C4.10972 32.2716 5.70354 33.0695 7.42157 33.3684C9.13961 33.6674 10.907 33.4543 12.5063 32.7553C14.1056 32.0564 15.4672 30.9022 16.4237 29.4345C16.4494 29.395 16.4749 29.3552 16.5 29.3153C16.5251 29.3552 16.5506 29.395 16.5763 29.4345C17.5328 30.9022 18.8944 32.0564 20.4937 32.7554C22.093 33.4543 23.8604 33.6674 25.5784 33.3685C27.2965 33.0695 28.8903 32.2716 30.1639 31.0728C31.4375 29.8741 32.3353 28.3267 32.747 26.621C33.1587 24.9153 33.0663 23.1256 32.4812 21.4721C31.8961 19.8186 30.8437 18.3733 29.4535 17.3139C29.3102 17.2046 29.1638 17.1 29.0148 17ZM16.491 9.50554C16.1266 9.50554 15.7927 9.36354 15.556 9.13298C15.2701 8.88127 15.0639 8.52485 14.9768 8.13604C14.8145 7.41127 14.5238 6.71792 14.1149 6.09051C13.4537 5.07592 12.5125 4.27798 11.4069 3.79483C10.3012 3.31167 9.07947 3.16436 7.8918 3.371C6.70413 3.57764 5.60233 4.12924 4.72189 4.95795C3.84146 5.78666 3.22077 6.85635 2.93616 8.0355C2.65155 9.21464 2.71543 10.4518 3.11993 11.5949C3.52443 12.738 4.25193 13.7371 5.21296 14.4695C5.80272 14.9189 6.46465 15.2558 7.16599 15.4679C7.52553 15.5766 7.84985 15.7873 8.08123 16.0638C8.2829 16.2807 8.41481 16.5733 8.43649 16.8974C8.4388 16.9319 8.43981 16.9661 8.43957 17.0001C8.43981 17.034 8.4388 17.0682 8.43649 17.1026C8.41481 17.4267 8.2829 17.7193 8.08124 17.9362C7.84986 18.2127 7.52554 18.4234 7.16599 18.5321C6.46465 18.7442 5.80272 19.0811 5.21296 19.5305C4.25193 20.2629 3.52443 21.262 3.11993 22.4051C2.71543 23.5482 2.65155 24.7854 2.93616 25.9645C3.22077 27.1436 3.84146 28.2133 4.72189 29.0421C5.60233 29.8708 6.70413 30.4224 7.8918 30.629C9.07947 30.8356 10.3012 30.6883 11.4069 30.2052C12.5125 29.722 13.4537 28.9241 14.1149 27.9095C14.5238 27.2821 14.8145 26.5887 14.9768 25.864C15.0639 25.4751 15.2701 25.1187 15.556 24.867C15.7927 24.6365 16.1266 24.4945 16.491 24.4945L16.4981 24.4945L16.509 24.4944C16.8737 24.4944 17.2078 24.6366 17.4445 24.8675C17.7301 25.1192 17.9361 25.4754 18.0232 25.864C18.1855 26.5887 18.4762 27.2821 18.8851 27.9095C19.5463 28.9241 20.4875 29.722 21.5931 30.2052C22.6988 30.6884 23.9205 30.8357 25.1082 30.629C26.2959 30.4224 27.3977 29.8708 28.2781 29.0421C29.1585 28.2134 29.7792 27.1437 30.0638 25.9645C30.3484 24.7854 30.2846 23.5482 29.8801 22.4051C29.4756 21.262 28.7481 20.2629 27.787 19.5305C27.1973 19.0811 26.5354 18.7442 25.834 18.5321C25.4743 18.4233 25.1498 18.2125 24.9184 17.9358C24.7169 17.7189 24.5852 17.4265 24.5635 17.1026C24.5612 17.0681 24.5602 17.0338 24.5604 16.9999C24.5602 16.966 24.5612 16.9318 24.5635 16.8974C24.5852 16.5735 24.7169 16.2811 24.9184 16.0643C25.1498 15.7875 25.4743 15.5767 25.834 15.4679C26.5354 15.2558 27.1973 14.9189 27.787 14.4695C28.7481 13.7371 29.4756 12.738 29.8801 11.5949C30.2846 10.4518 30.3484 9.21462 30.0638 8.03548C29.7792 6.85633 29.1585 5.78663 28.2781 4.95792C27.3977 4.12921 26.2959 3.57762 25.1082 3.37098C23.9205 3.16433 22.6988 3.31165 21.5931 3.79481C20.4875 4.27796 19.5463 5.0759 18.8851 6.09048C18.4762 6.7179 18.1855 7.41125 18.0232 8.13602C17.9361 8.52459 17.7301 8.88082 17.4445 9.13251C17.2078 9.36336 16.8737 9.50557 16.509 9.50557L16.4981 9.50552L16.491 9.50554Z" fill="#52C29D"/>
</symbol>


<symbol id='megafon' width="40" height="37" viewBox="0 0 40 37">
<path d="M34.2303 17.5039C35.0267 18.7942 34.0717 20.4147 32.4798 20.4722C26.6672 20.6851 20.7405 22.0432 15.1528 24.7169L13.3051 25.7144C13.3051 25.7222 13.2796 25.6736 17.7776 32.9919C18.1904 33.6615 17.9454 34.5168 17.2304 34.9037L15.7731 35.6906C15.0581 36.0767 14.143 35.8476 13.7303 35.1779L9.24365 27.9082L8.51539 28.3021C7.08461 29.0742 5.25525 28.6159 4.429 27.2774L1.06423 21.8255C0.238812 20.487 0.728747 18.7756 2.15952 18.0026L8.79689 14.4175C13.8694 11.3478 18.1678 7.28337 21.3899 2.50218C22.2394 1.24136 24.2166 1.27787 25.0129 2.56821L27.8919 7.23396C29.546 6.34058 31.6619 6.87117 32.6169 8.41865C33.5718 9.96613 33.0047 11.9448 31.3505 12.8381L34.2303 17.5039Z" fill="#D1E7FF"/>
<path d="M32.6168 8.41887C33.5718 9.96636 33.0046 11.945 31.3505 12.8384L27.8918 7.23416C29.546 6.34078 31.6619 6.87137 32.6168 8.41887Z" fill="#D1E7FF"/>
<path d="M25.0129 2.56818C25.4102 3.2125 25.3847 4.0118 24.9451 4.63157C21.3983 9.63111 16.6444 14.1487 10.8305 17.6677L3.05386 21.8681C2.51991 22.1571 2.09724 22.5572 1.80162 23.0194L1.06423 21.8254C0.238812 20.4869 0.728747 18.7755 2.15952 18.0026L8.79689 14.4174C13.8694 11.3478 18.1678 7.28333 21.3899 2.50215C22.2394 1.24133 24.2165 1.27792 25.0129 2.56818Z" fill="#E8F3FF"/>
<path d="M8.79689 14.4177L15.1528 24.7171C13.8791 25.4047 9.78722 27.6145 8.51538 28.3023C7.08461 29.0745 5.25524 28.6161 4.429 27.2776L1.06423 21.8257C0.238812 20.4872 0.728747 18.7758 2.15952 18.0029L8.79689 14.4177Z" fill="#B9DCFF"/>
<path d="M10.8097 17.6794C2.36409 22.2406 2.92378 21.9233 2.65133 22.1216C2.13823 22.4951 1.38937 22.352 1.06411 21.8254C0.23869 20.4869 0.728625 18.7756 2.1594 18.0026L8.79677 14.4175L10.8097 17.6794Z" fill="#D1E7FF"/>
<path d="M14.515 27.683C12.152 28.963 13.8906 28.021 10.4577 29.8744L9.24365 27.9083L13.3051 25.7153L14.515 27.683Z" fill="#B9DCFF"/>
<path d="M32.41 11.9495C32.136 12.3014 31.7798 12.6067 31.3504 12.8382L27.8918 7.23412C28.3212 7.00185 28.782 6.86668 29.2446 6.82007C29.4186 7.10221 32.2582 11.7035 32.41 11.9495Z" fill="#B9DCFF"/>
<path d="M32.231 13.0215C34.8236 11.0404 33.928 7.12262 30.6884 6.31066C29.8419 6.0985 28.9656 6.14263 28.1623 6.42889L25.5882 2.25793C24.5407 0.560599 21.9428 0.515619 20.8274 2.17053C17.6614 6.86843 13.4435 10.8641 8.43582 13.8962C8.15067 14.0685 8.04496 14.4246 8.21369 14.7144C8.24076 14.7608 12.5045 21.6688 12.5328 21.7145C12.7161 22.0116 13.1222 22.1137 13.4402 21.942C13.7579 21.7704 13.8668 21.3903 13.6834 21.093L9.68499 14.6141C14.4599 11.6279 18.6887 7.67449 21.9514 2.83342C22.5349 1.96747 23.8913 1.99435 24.4375 2.87941L33.6546 17.8144C34.2015 18.7006 33.5458 19.8118 32.4541 19.8516C26.3293 20.0748 20.3328 21.5403 14.8502 24.1636C14.8269 24.1747 8.61087 27.5326 8.1828 27.7638C7.07165 28.364 5.64585 28.0066 5.00445 26.9671L1.6396 21.5146C0.998115 20.4752 1.38018 19.1414 2.49125 18.5412L6.54102 16.3539C6.85873 16.1823 6.9676 15.8022 6.78416 15.5049C6.60073 15.2076 6.19433 15.1059 5.8767 15.2775L1.82694 17.4648C0.0814388 18.4076 -0.518773 20.5031 0.488998 22.1361L3.85394 27.5885C4.86179 29.2216 7.10179 29.7829 8.84729 28.8401L9.0005 28.7574L13.1549 35.489C13.7516 36.4559 15.0711 36.7871 16.1053 36.2286L17.5624 35.4416C18.5962 34.8832 18.9498 33.6487 18.3529 32.6815L15.4086 27.9106C15.2252 27.6134 14.8188 27.5116 14.5011 27.6832C14.1834 27.8548 14.0746 28.2349 14.258 28.5321L17.2023 33.303C17.432 33.6751 17.296 34.1503 16.8981 34.3651L15.441 35.1522C15.0431 35.367 14.5353 35.2397 14.3056 34.8675L10.1512 28.1359L15.4703 25.2629C20.6753 22.775 26.4658 21.3136 32.5059 21.0935C34.5992 21.0171 35.8512 18.8873 34.8052 17.1928L32.231 13.0215ZM32.0412 8.72914C32.6971 9.79186 32.4615 11.1106 31.5536 11.9239L28.8395 7.52596C30.0293 7.19945 31.3748 7.64924 32.0412 8.72914ZM38.5387 5.96613L36.8199 6.89454C36.5019 7.06622 36.0958 6.96422 35.9124 6.66708C35.7289 6.36985 35.8379 5.98974 36.1556 5.81814L37.8744 4.88973C38.1924 4.71805 38.5985 4.82005 38.7819 5.11719C38.9653 5.41441 38.8565 5.79452 38.5387 5.96613ZM31.1467 2.42402L31.5659 0.960752C31.6609 0.629194 32.0249 0.432575 32.3796 0.52129C32.734 0.610162 32.9443 0.950964 32.8493 1.28244L32.4301 2.74571C32.3353 3.07641 31.972 3.27404 31.6164 3.18517C31.2621 3.0963 31.0518 2.75558 31.1467 2.42402ZM39.8353 12.6022C39.7557 12.8798 39.4873 13.0629 39.1939 13.0629C39.0737 13.0629 39.1578 13.0757 37.4574 12.6495C37.103 12.5606 36.8927 12.2199 36.9876 11.8883C37.0826 11.5568 37.4469 11.3602 37.8013 11.4489L39.3655 11.8409C39.7198 11.9298 39.9302 12.2706 39.8353 12.6022Z" fill="#007FFC"/>
</symbol>

<symbol id='megafongrn' width="40" height="36" viewBox="0 0 40 36">
<path d="M34.2303 17.0039C35.0267 18.2942 34.0717 19.9147 32.4798 19.9722C26.6672 20.1851 20.7405 21.5432 15.1528 24.2169L13.3051 25.2144C13.3051 25.2222 13.2796 25.1736 17.7776 32.4919C18.1904 33.1615 17.9454 34.0168 17.2304 34.4037L15.7731 35.1906C15.0581 35.5767 14.143 35.3476 13.7303 34.6779L9.24365 27.4082L8.51539 27.8021C7.08461 28.5742 5.25525 28.1159 4.429 26.7774L1.06423 21.3255C0.238812 19.987 0.728747 18.2756 2.15952 17.5026L8.79689 13.9175C13.8694 10.8478 18.1678 6.78337 21.3899 2.00218C22.2394 0.74136 24.2166 0.777871 25.0129 2.06821L27.8919 6.73396C29.546 5.84058 31.6619 6.37117 32.6169 7.91865C33.5718 9.46613 33.0047 11.4448 31.3505 12.3381L34.2303 17.0039Z" fill="#E1F4F5"/>
<path d="M32.6168 7.91887C33.5718 9.46636 33.0046 11.445 31.3505 12.3384L27.8918 6.73416C29.546 5.84078 31.6619 6.37137 32.6168 7.91887Z" fill="#E1F4F5"/>
<path d="M25.0129 2.06818C25.4102 2.7125 25.3847 3.5118 24.9451 4.13157C21.3983 9.13111 16.6444 13.6487 10.8305 17.1677L3.05386 21.3681C2.51991 21.6571 2.09724 22.0572 1.80162 22.5194L1.06423 21.3254C0.238812 19.9869 0.728747 18.2755 2.15952 17.5026L8.79689 13.9174C13.8694 10.8478 18.1678 6.78333 21.3899 2.00215C22.2394 0.741332 24.2165 0.777921 25.0129 2.06818Z" fill="#F4FEFF"/>
<path d="M8.79689 13.9177L15.1528 24.2171C13.8791 24.9047 9.78722 27.1145 8.51538 27.8023C7.08461 28.5745 5.25524 28.1161 4.429 26.7776L1.06423 21.3257C0.238812 19.9872 0.728747 18.2758 2.15952 17.5029L8.79689 13.9177Z" fill="#CAEFF2"/>
<path d="M10.8097 17.1794C2.36409 21.7406 2.92378 21.4233 2.65133 21.6216C2.13823 21.9951 1.38937 21.852 1.06411 21.3254C0.23869 19.9869 0.728625 18.2756 2.1594 17.5026L8.79677 13.9175L10.8097 17.1794Z" fill="#E1F4F5"/>
<path d="M14.515 27.183C12.152 28.463 13.8906 27.521 10.4577 29.3744L9.24365 27.4083L13.3051 25.2153L14.515 27.183Z" fill="#CAEFF2"/>
<path d="M32.41 11.4495C32.136 11.8014 31.7798 12.1067 31.3504 12.3382L27.8918 6.73412C28.3212 6.50185 28.782 6.36668 29.2446 6.32007C29.4186 6.60221 32.2582 11.2035 32.41 11.4495Z" fill="#CAEFF2"/>
<path d="M32.231 12.5215C34.8236 10.5404 33.928 6.62262 30.6884 5.81066C29.8419 5.5985 28.9656 5.64263 28.1623 5.92889L25.5882 1.75793C24.5407 0.0605986 21.9428 0.0156194 20.8274 1.67053C17.6614 6.36843 13.4435 10.3641 8.43582 13.3962C8.15067 13.5685 8.04496 13.9246 8.21369 14.2144C8.24076 14.2608 12.5045 21.1688 12.5328 21.2145C12.7161 21.5116 13.1222 21.6137 13.4402 21.442C13.7579 21.2704 13.8668 20.8903 13.6834 20.593L9.68499 14.1141C14.4599 11.1279 18.6887 7.17449 21.9514 2.33342C22.5349 1.46747 23.8913 1.49435 24.4375 2.37941L33.6546 17.3144C34.2015 18.2006 33.5458 19.3118 32.4541 19.3516C26.3293 19.5748 20.3328 21.0403 14.8502 23.6636C14.8269 23.6747 8.61087 27.0326 8.1828 27.2638C7.07165 27.864 5.64585 27.5066 5.00445 26.4671L1.6396 21.0146C0.998115 19.9752 1.38018 18.6414 2.49125 18.0412L6.54102 15.8539C6.85873 15.6823 6.9676 15.3022 6.78416 15.0049C6.60073 14.7076 6.19433 14.6059 5.8767 14.7775L1.82694 16.9648C0.0814388 17.9076 -0.518773 20.0031 0.488998 21.6361L3.85394 27.0885C4.86179 28.7216 7.10179 29.2829 8.84729 28.3401L9.0005 28.2574L13.1549 34.989C13.7516 35.9559 15.0711 36.2871 16.1053 35.7286L17.5624 34.9416C18.5962 34.3832 18.9498 33.1487 18.3529 32.1815L15.4086 27.4106C15.2252 27.1134 14.8188 27.0116 14.5011 27.1832C14.1834 27.3548 14.0746 27.7349 14.258 28.0321L17.2023 32.803C17.432 33.1751 17.296 33.6503 16.8981 33.8651L15.441 34.6522C15.0431 34.867 14.5353 34.7397 14.3056 34.3675L10.1512 27.6359L15.4703 24.7629C20.6753 22.275 26.4658 20.8136 32.5059 20.5935C34.5992 20.5171 35.8512 18.3873 34.8052 16.6928L32.231 12.5215ZM32.0412 8.22914C32.6971 9.29186 32.4615 10.6106 31.5536 11.4239L28.8395 7.02596C30.0293 6.69945 31.3748 7.14924 32.0412 8.22914ZM38.5387 5.46613L36.8199 6.39454C36.5019 6.56622 36.0958 6.46422 35.9124 6.16708C35.7289 5.86985 35.8379 5.48974 36.1556 5.31814L37.8744 4.38973C38.1924 4.21805 38.5985 4.32005 38.7819 4.61719C38.9653 4.91441 38.8565 5.29452 38.5387 5.46613ZM31.1467 1.92402L31.5659 0.460752C31.6609 0.129194 32.0249 -0.0674254 32.3796 0.0212904C32.734 0.110162 32.9443 0.450964 32.8493 0.782444L32.4301 2.24571C32.3353 2.57641 31.972 2.77404 31.6164 2.68517C31.2621 2.5963 31.0518 2.25558 31.1467 1.92402ZM39.8353 12.1022C39.7557 12.3798 39.4873 12.5629 39.1939 12.5629C39.0737 12.5629 39.1578 12.5757 37.4574 12.1495C37.103 12.0606 36.8927 11.7199 36.9876 11.3883C37.0826 11.0568 37.4469 10.8602 37.8013 10.9489L39.3655 11.3409C39.7198 11.4298 39.9302 11.7706 39.8353 12.1022Z" fill="#52C29D"/>
</symbol>


<symbol id='store' width="39" height="36" viewBox="0 0 39 36">
<path d="M36.4285 13.3215V32.9997C36.4285 34.325 35.2797 35.3997 33.8631 35.3997H5.64347C4.22687 35.3997 3.07805 34.325 3.07805 32.9997C3.07805 14.3965 3.07637 17.8814 3.08366 13.3215H36.4285Z" fill="#D1E7FF"/>
<path d="M36.4284 13.3215V17.8664C36.4284 18.8499 35.5857 19.6647 34.5343 19.6687C34.5226 19.6687 4.99246 19.6687 4.97113 19.6687C3.92011 19.6644 3.07793 18.8496 3.07793 17.8664C3.07793 16.5546 3.07697 17.4602 3.08354 13.3215H36.4284Z" fill="#B9DCFF"/>
<path d="M26.247 24.6749V35.3998H13.2595V24.6749C13.2595 23.3496 14.4084 22.2749 15.825 22.2749H23.6816C25.0982 22.2749 26.247 23.3496 26.247 24.6749Z" fill="#E8F3FF"/>
<path d="M38.3525 13.3215C38.3525 15.7228 36.271 17.6715 33.7026 17.6715C31.1348 17.6715 29.0528 15.7237 29.0528 13.3215C29.0528 15.7237 26.9708 17.6715 24.403 17.6715C21.8352 17.6715 19.7532 15.7237 19.7532 13.3215C19.7532 15.7237 17.6712 17.6715 15.1034 17.6715C12.5355 17.6715 10.4535 15.7237 10.4535 13.3215C10.4495 15.708 8.34991 17.6715 5.80373 17.6715C3.26068 17.6715 1.15792 15.7105 1.15391 13.3215C1.15391 9.54093 1.14285 9.77358 1.18197 9.60003C1.22045 9.4297 0.953727 10.0328 4.98761 1.32309C5.19124 0.884345 5.65381 0.600098 6.16449 0.600098H33.3419C33.8526 0.600098 34.3151 0.884345 34.5188 1.32309C38.5556 10.0392 38.2858 9.42955 38.3244 9.60003C38.3634 9.7732 38.3525 9.5368 38.3525 13.3215Z" fill="#B9DCFF"/>
<path d="M38.3525 13.3215C38.3525 15.7227 36.2711 17.6714 33.7027 17.6714C31.1349 17.6714 29.0529 15.7237 29.0529 13.3215C29.0529 15.7237 26.9709 17.6714 24.4031 17.6714C21.8352 17.6714 19.7532 15.7237 19.7532 13.3215C19.7532 15.7237 17.6712 17.6714 15.1034 17.6714C12.5356 17.6714 10.4536 15.7237 10.4536 13.3215C10.4496 15.7079 8.34994 17.6714 5.80376 17.6714C3.26071 17.6714 1.15794 15.7104 1.15393 13.3215C1.1476 9.5203 1.14856 9.74837 1.18199 9.6001H38.3245C38.3635 9.77327 38.3525 9.53687 38.3525 13.3215Z" fill="#B9DCFF"/>
<path d="M32.9955 3.8062C24.8521 2.7577 16.6336 4.10253 9.98625 8.78839C9.23803 9.31586 8.32602 9.60011 7.38916 9.60011H1.18213C1.22061 9.42979 0.953887 10.0329 4.98777 1.3231C5.1914 0.884348 5.65397 0.600098 6.16465 0.600098H33.3421C33.8532 0.600098 34.3156 0.884048 34.5188 1.3228L34.6975 1.70845C35.1982 2.78943 34.2431 3.96685 32.9955 3.8062Z" fill="white"/>
<path d="M37.0698 20.325V33C37.0698 34.6542 35.6312 36 33.863 36H5.64338C3.87517 36 2.43661 34.6542 2.43661 33V20.325C2.43661 19.9937 2.72377 19.725 3.07796 19.725C3.43215 19.725 3.71932 19.9937 3.71932 20.325V33C3.71932 33.9925 4.58242 34.8 5.64338 34.8H12.6181V24.675C12.6181 23.0208 14.0567 21.675 15.8249 21.675H23.6815C25.4497 21.675 26.8883 23.0208 26.8883 24.675V32.4C26.8883 32.7313 26.6011 33 26.2469 33C25.8927 33 25.6055 32.7313 25.6055 32.4V24.675C25.6055 23.6825 24.7424 22.875 23.6815 22.875H15.8249C14.764 22.875 13.9008 23.6825 13.9008 24.675V34.8H19.1118V25.35C19.1118 25.0187 19.399 24.75 19.7532 24.75C20.1074 24.75 20.3945 25.0187 20.3945 25.35V34.8H33.863C34.9239 34.8 35.787 33.9925 35.787 33V20.325C35.787 19.9937 36.0742 19.725 36.4284 19.725C36.7826 19.725 37.0698 19.9936 37.0698 20.325ZM4.68135 9.6C4.68135 9.93135 4.96852 10.2 5.3227 10.2C40.2178 10.2 38.4877 10.2584 38.7426 10.0754C38.8759 9.9795 38.963 9.84112 38.9869 9.68303C39.0227 9.4419 39.2528 10.0349 34.7721 0.361425C34.6704 0.141975 34.4392 0 34.1836 0H5.32262C5.06704 0 4.83576 0.14205 4.73418 0.361425L0.565375 9.36143C0.4917 9.52058 0.512464 9.26798 0.512464 13.3224C0.517114 16.0513 2.89069 18.2714 5.80364 18.2714C7.80619 18.2714 9.5538 17.2222 10.4521 15.6797C12.4584 19.129 17.7431 19.1328 19.7531 15.682C21.7615 19.13 27.0439 19.1308 29.0527 15.682C29.9504 17.2232 31.6982 18.2714 33.7026 18.2714C36.6202 18.2714 38.9937 16.0509 38.9937 13.3214C38.9937 12.9901 38.7066 12.7214 38.3524 12.7214C37.9982 12.7214 37.711 12.9901 37.711 13.3214C37.711 15.3892 35.9128 17.0714 33.7026 17.0714C31.4923 17.0714 29.6941 15.3892 29.6941 13.3214C29.6941 12.9901 29.4069 12.7214 29.0527 12.7214C28.6986 12.7214 28.4114 12.9901 28.4114 13.3214C28.4114 15.3892 26.6132 17.0714 24.4029 17.0714C22.1927 17.0714 20.3945 15.3892 20.3945 13.3214C20.3945 12.9901 20.1073 12.7214 19.7531 12.7214C19.3989 12.7214 19.1117 12.9901 19.1117 13.3214C19.1117 15.3892 17.3136 17.0714 15.1033 17.0714C12.9422 17.0714 11.0948 15.4466 11.0948 13.2914C11.0948 12.9601 10.8076 12.6914 10.4535 12.6914C10.0993 12.6914 9.81211 12.9601 9.81211 13.2914C9.81211 15.4284 7.97631 17.0714 5.80364 17.0714C3.5969 17.0714 1.79862 15.3887 1.79517 13.3214V9.72435L5.74375 1.2H33.7626L37.3755 9H5.3227C4.96844 9 4.68135 9.26858 4.68135 9.6Z" fill="#007FFC"/>
</symbol>

<symbol id='storegrn' width="39" height="36" viewBox="0 0 39 36" fill="none">
<path d="M35.9187 13.3215V32.9997C35.9187 34.325 34.7699 35.3997 33.3533 35.3997H5.1337C3.71711 35.3997 2.56828 34.325 2.56828 32.9997C2.56828 14.3965 2.5666 17.8814 2.57389 13.3215H35.9187Z" fill="#E1F4F5"/>
<path d="M35.9187 13.3215V17.8664C35.9187 18.8499 35.0759 19.6647 34.0246 19.6687C34.0129 19.6687 4.48269 19.6687 4.46137 19.6687C3.41034 19.6644 2.56816 18.8496 2.56816 17.8664C2.56816 16.5546 2.5672 17.4602 2.57378 13.3215H35.9187Z" fill="#CAEFF2"/>
<path d="M25.7372 24.6749V35.3998H12.7498V24.6749C12.7498 23.3496 13.8986 22.2749 15.3152 22.2749H23.1718C24.5884 22.2749 25.7372 23.3496 25.7372 24.6749Z" fill="#F4FEFF"/>
<path d="M37.8427 13.3215C37.8427 15.7228 35.7613 17.6715 33.1929 17.6715C30.6251 17.6715 28.5431 15.7237 28.5431 13.3215C28.5431 15.7237 26.4611 17.6715 23.8932 17.6715C21.3254 17.6715 19.2434 15.7237 19.2434 13.3215C19.2434 15.7237 17.1614 17.6715 14.5936 17.6715C12.0258 17.6715 9.94378 15.7237 9.94378 13.3215C9.93977 15.708 7.84014 17.6715 5.29396 17.6715C2.75091 17.6715 0.648153 15.7105 0.644144 13.3215C0.644144 9.54093 0.633081 9.77358 0.672203 9.60003C0.710685 9.4297 0.443961 10.0328 4.47784 1.32309C4.68147 0.884345 5.14405 0.600098 5.65473 0.600098H32.8321C33.3428 0.600098 33.8054 0.884345 34.009 1.32309C38.0458 10.0392 37.7761 9.42955 37.8146 9.60003C37.8537 9.7732 37.8427 9.5368 37.8427 13.3215Z" fill="#CAEFF2"/>
<path d="M37.8428 13.3215C37.8428 15.7227 35.7613 17.6714 33.1929 17.6714C30.6251 17.6714 28.5431 15.7237 28.5431 13.3215C28.5431 15.7237 26.4611 17.6714 23.8933 17.6714C21.3255 17.6714 19.2435 15.7237 19.2435 13.3215C19.2435 15.7237 17.1615 17.6714 14.5936 17.6714C12.0258 17.6714 9.94382 15.7237 9.94382 13.3215C9.93981 15.7079 7.84017 17.6714 5.29399 17.6714C2.75094 17.6714 0.648177 15.7104 0.644169 13.3215C0.637835 9.5203 0.638797 9.74837 0.672228 9.6001H37.8147C37.8537 9.77327 37.8428 9.53687 37.8428 13.3215Z" fill="#CAEFF2"/>
<path d="M32.4857 3.8062C24.3424 2.7577 16.1238 4.10253 9.47648 8.78839C8.72826 9.31586 7.81625 9.60011 6.87939 9.60011H0.672363C0.710845 9.42979 0.444121 10.0329 4.478 1.3231C4.68163 0.884348 5.14421 0.600098 5.65489 0.600098H32.8323C33.3435 0.600098 33.8058 0.884048 34.009 1.3228L34.1877 1.70845C34.6885 2.78943 33.7333 3.96685 32.4857 3.8062Z" fill="white"/>
<path d="M36.56 20.325V33C36.56 34.6542 35.1214 36 33.3532 36H5.13362C3.3654 36 1.92684 34.6542 1.92684 33V20.325C1.92684 19.9937 2.21401 19.725 2.5682 19.725C2.92238 19.725 3.20955 19.9937 3.20955 20.325V33C3.20955 33.9925 4.07265 34.8 5.13362 34.8H12.1083V24.675C12.1083 23.0208 13.5469 21.675 15.3151 21.675H23.1717C24.9399 21.675 26.3785 23.0208 26.3785 24.675V32.4C26.3785 32.7313 26.0913 33 25.7371 33C25.3829 33 25.0958 32.7313 25.0958 32.4V24.675C25.0958 23.6825 24.2326 22.875 23.1717 22.875H15.3151C14.2542 22.875 13.3911 23.6825 13.3911 24.675V34.8H18.6021V25.35C18.6021 25.0187 18.8892 24.75 19.2434 24.75C19.5976 24.75 19.8848 25.0187 19.8848 25.35V34.8H33.3532C34.4141 34.8 35.2773 33.9925 35.2773 33V20.325C35.2773 19.9937 35.5644 19.725 35.9186 19.725C36.2728 19.725 36.56 19.9936 36.56 20.325ZM4.17158 9.6C4.17158 9.93135 4.45875 10.2 4.81294 10.2C39.7081 10.2 37.9779 10.2584 38.2329 10.0754C38.3661 9.9795 38.4533 9.84112 38.4772 9.68303C38.5129 9.4419 38.7431 10.0349 34.2623 0.361425C34.1606 0.141975 33.9295 0 33.6738 0H4.81286C4.55728 0 4.32599 0.14205 4.22441 0.361425L0.0556098 9.36143C-0.0180658 9.52058 0.00269808 9.26798 0.00269808 13.3224C0.0073479 16.0513 2.38092 18.2714 5.29387 18.2714C7.29642 18.2714 9.04403 17.2222 9.94233 15.6797C11.9486 19.129 17.2333 19.1328 19.2433 15.682C21.2517 19.13 26.5341 19.1308 28.543 15.682C29.4406 17.2232 31.1884 18.2714 33.1928 18.2714C36.1104 18.2714 38.484 16.0509 38.484 13.3214C38.484 12.9901 38.1968 12.7214 37.8426 12.7214C37.4884 12.7214 37.2013 12.9901 37.2013 13.3214C37.2013 15.3892 35.4031 17.0714 33.1928 17.0714C30.9825 17.0714 29.1843 15.3892 29.1843 13.3214C29.1843 12.9901 28.8972 12.7214 28.543 12.7214C28.1888 12.7214 27.9016 12.9901 27.9016 13.3214C27.9016 15.3892 26.1034 17.0714 23.8932 17.0714C21.6829 17.0714 19.8847 15.3892 19.8847 13.3214C19.8847 12.9901 19.5975 12.7214 19.2433 12.7214C18.8891 12.7214 18.602 12.9901 18.602 13.3214C18.602 15.3892 16.8038 17.0714 14.5935 17.0714C12.4324 17.0714 10.585 15.4466 10.585 13.2914C10.585 12.9601 10.2979 12.6914 9.94369 12.6914C9.58951 12.6914 9.30234 12.9601 9.30234 13.2914C9.30234 15.4284 7.46654 17.0714 5.29387 17.0714C3.08713 17.0714 1.28885 15.3887 1.28541 13.3214V9.72435L5.23399 1.2H33.2528L36.8658 9H4.81294C4.45867 9 4.17158 9.26858 4.17158 9.6Z" fill="#52C29D"/>
</symbol>

<symbol id='phone' width="25" height="36" viewBox="0 0 25 36">
<path d="M21.7934 0.600098C23.21 0.600098 24.3588 1.67485 24.3588 3.0001V33.0001C24.3588 34.3254 23.21 35.4001 21.7934 35.4001H4.15601C2.73941 35.4001 1.59058 34.3254 1.59058 33.0001V3.0001C1.59058 1.67485 2.73941 0.600098 4.15601 0.600098H21.7934Z" fill="#D1E7FF"/>
<path d="M17.0087 13.479C17.6228 13.479 18.1375 13.9118 18.204 14.4825L19.0618 21.8535C19.1396 22.5188 18.5824 23.1 17.8665 23.1H8.08259C7.36668 23.1 6.8095 22.5188 6.88726 21.8535L7.74508 14.4825C7.81162 13.9118 8.32631 13.479 8.94041 13.479H17.0087Z" fill="#B9DCFF"/>
<path d="M21.9146 0.602744C23.9778 0.692519 23.8684 3.60012 21.803 3.60012H13.4557C8.67384 3.60012 4.79738 7.22659 4.79738 11.7001V35.4001H4.15602C2.73917 35.4001 1.59058 34.3256 1.59058 33.0001V3.00012C1.59058 1.67464 2.73917 0.600119 4.15602 0.600119C4.2721 0.600119 21.8205 0.598619 21.9146 0.602744Z" fill="#E8F3FF"/>
<path d="M24.3588 30.1501V33.0001C24.3588 34.3254 23.21 35.4001 21.7934 35.4001H4.15601C2.73941 35.4001 1.59058 34.3254 1.59058 33.0001V30.1501H24.3588Z" fill="#B9DCFF"/>
<path d="M4.79736 30.1501V33.009C4.79736 34.9636 1.59058 35.0635 1.59058 33.0001V30.1501H4.79736Z" fill="#D1E7FF"/>
<path d="M17.0089 15.729C13.1241 15.729 9.94864 18.4649 9.53865 21.9895C9.46513 22.6214 8.89472 23.1 8.21528 23.1H8.0826C7.36668 23.1 6.8095 22.5188 6.88726 21.8535L7.74508 14.4825C7.81162 13.9118 8.32632 13.479 8.94042 13.479H17.0087C17.6224 13.479 18.1376 13.9113 18.204 14.4821C18.2817 15.149 17.7235 15.729 17.0089 15.729Z" fill="#D1E7FF"/>
<path d="M21.7932 0H4.15589C2.38766 0 0.949097 1.3458 0.949097 3V33C0.949097 34.6542 2.38766 36 4.15589 36H21.7932C23.5615 36 25 34.6542 25 33V3C25 1.3458 23.5615 0 21.7932 0ZM21.7932 34.8H4.15589C3.095 34.8 2.23181 33.9925 2.23181 33V3C2.23181 2.00745 3.095 1.2 4.15589 1.2H21.7932C22.8541 1.2 23.7173 2.00745 23.7173 3V29.55H5.35844C5.00424 29.55 4.71708 29.8187 4.71708 30.15C4.71708 30.4814 5.00424 30.75 5.35844 30.75H23.7173V33C23.7173 33.9925 22.8541 34.8 21.7932 34.8ZM14.4176 32.625C14.4176 32.9564 14.1305 33.225 13.7763 33.225H12.1729C11.8187 33.225 11.5315 32.9564 11.5315 32.625C11.5315 32.2937 11.8187 32.025 12.1729 32.025H13.7763C14.1305 32.025 14.4176 32.2937 14.4176 32.625ZM8.0826 23.7H17.8665C18.9634 23.7 19.8183 22.8079 19.6996 21.7883L18.8419 14.4176C18.7398 13.5407 17.9517 12.8794 17.0088 12.8794H16.4151V11.7686C16.415 9.99383 14.8716 8.55 12.9746 8.55C11.0775 8.55 9.53416 9.99383 9.53416 11.7686V12.8793H8.94042C7.99746 12.8793 7.20948 13.5406 7.10734 14.4176L6.2496 21.7883C6.13087 22.8084 6.98636 23.7 8.0826 23.7ZM7.5247 21.9182L8.38244 14.5475C8.41355 14.2806 8.65333 14.0793 8.94034 14.0793H9.53408V15.0155C9.53408 15.3469 9.82125 15.6155 10.1754 15.6155C10.5296 15.6155 10.8168 15.3469 10.8168 15.0155V11.7686C10.8168 10.6556 11.7847 9.75 12.9745 9.75C14.1643 9.75 15.1322 10.6555 15.1322 11.7686V12.8794H12.358C12.0038 12.8794 11.7166 13.148 11.7166 13.4794C11.7166 13.8107 12.0038 14.0794 12.358 14.0794H15.1322V15.0155C15.1322 15.3469 15.4193 15.6155 15.7735 15.6155C16.1277 15.6155 16.4149 15.3469 16.4149 15.0155V14.0794H17.0086C17.2956 14.0794 17.5354 14.2807 17.5665 14.5475L18.4243 21.9182C18.4603 22.2284 18.202 22.5 17.8664 22.5H8.0826C7.74846 22.5 7.48855 22.2296 7.5247 21.9182Z" fill="#007FFC"/>
</symbol>


<symbol id='phonegr' width="25" height="36" viewBox="0 0 25 36">
<path d="M20.8442 0.600098C22.2608 0.600098 23.4096 1.67485 23.4096 3.0001V33.0001C23.4096 34.3254 22.2608 35.4001 20.8442 35.4001H3.20679C1.79019 35.4001 0.641357 34.3254 0.641357 33.0001V3.0001C0.641357 1.67485 1.79019 0.600098 3.20679 0.600098H20.8442Z" fill="#E1F4F5"/>
<path d="M16.0596 13.479C16.6737 13.479 17.1884 13.9118 17.2549 14.4825L18.1127 21.8535C18.1905 22.5188 17.6333 23.1 16.9174 23.1H7.13349C6.41758 23.1 5.8604 22.5188 5.93816 21.8535L6.79598 14.4825C6.86252 13.9118 7.37721 13.479 7.99131 13.479H16.0596Z" fill="#CAEFF2"/>
<path d="M20.9654 0.602744C23.0286 0.692519 22.9192 3.60012 20.8537 3.60012H12.5065C7.72462 3.60012 3.84816 7.22659 3.84816 11.7001V35.4001H3.2068C1.78995 35.4001 0.641357 34.3256 0.641357 33.0001V3.00012C0.641357 1.67464 1.78995 0.600119 3.2068 0.600119C3.32288 0.600119 20.8713 0.598619 20.9654 0.602744Z" fill="#F4FEFF"/>
<path d="M23.4096 30.1501V33.0001C23.4096 34.3254 22.2608 35.4001 20.8442 35.4001H3.20679C1.79019 35.4001 0.641357 34.3254 0.641357 33.0001V30.1501H23.4096Z" fill="#CAEFF2"/>
<path d="M3.84814 30.1501V33.009C3.84814 34.9636 0.641357 35.0635 0.641357 33.0001V30.1501H3.84814Z" fill="#E1F4F5"/>
<path d="M16.0598 15.729C12.175 15.729 8.99954 18.4649 8.58955 21.9895C8.51604 22.6214 7.94563 23.1 7.26618 23.1H7.1335C6.41758 23.1 5.8604 22.5188 5.93816 21.8535L6.79599 14.4825C6.86253 13.9118 7.37722 13.479 7.99132 13.479H16.0597C16.6733 13.479 17.1885 13.9113 17.2549 14.4821C17.3326 15.149 16.7744 15.729 16.0598 15.729Z" fill="#E1F4F5"/>
<path d="M20.8441 0H3.20679C1.43857 0 0 1.3458 0 3V33C0 34.6542 1.43857 36 3.20679 36H20.8441C22.6124 36 24.0509 34.6542 24.0509 33V3C24.0509 1.3458 22.6124 0 20.8441 0ZM20.8441 34.8H3.20679C2.1459 34.8 1.28272 33.9925 1.28272 33V3C1.28272 2.00745 2.1459 1.2 3.20679 1.2H20.8441C21.905 1.2 22.7682 2.00745 22.7682 3V29.55H4.40934C4.05515 29.55 3.76798 29.8187 3.76798 30.15C3.76798 30.4814 4.05515 30.75 4.40934 30.75H22.7682V33C22.7682 33.9925 21.905 34.8 20.8441 34.8ZM13.4685 32.625C13.4685 32.9564 13.1814 33.225 12.8272 33.225H11.2238C10.8696 33.225 10.5824 32.9564 10.5824 32.625C10.5824 32.2937 10.8696 32.025 11.2238 32.025H12.8272C13.1814 32.025 13.4685 32.2937 13.4685 32.625ZM7.13351 23.7H16.9174C18.0143 23.7 18.8692 22.8079 18.7505 21.7883L17.8928 14.4176C17.7907 13.5407 17.0026 12.8794 16.0597 12.8794H15.466V11.7686C15.4659 9.99383 13.9225 8.55 12.0255 8.55C10.1284 8.55 8.58506 9.99383 8.58506 11.7686V12.8793H7.99132C7.04837 12.8793 6.26038 13.5406 6.15824 14.4176L5.30051 21.7883C5.18177 22.8084 6.03727 23.7 7.13351 23.7ZM6.57561 21.9182L7.43334 14.5475C7.46445 14.2806 7.70424 14.0793 7.99124 14.0793H8.58498V15.0155C8.58498 15.3469 8.87215 15.6155 9.22634 15.6155C9.58053 15.6155 9.8677 15.3469 9.8677 15.0155V11.7686C9.8677 10.6556 10.8356 9.75 12.0254 9.75C13.2152 9.75 14.1831 10.6555 14.1831 11.7686V12.8794H11.4089C11.0547 12.8794 10.7675 13.148 10.7675 13.4794C10.7675 13.8107 11.0547 14.0794 11.4089 14.0794H14.1831V15.0155C14.1831 15.3469 14.4702 15.6155 14.8244 15.6155C15.1786 15.6155 15.4658 15.3469 15.4658 15.0155V14.0794H16.0595C16.3465 14.0794 16.5863 14.2807 16.6174 14.5475L17.4752 21.9182C17.5112 22.2284 17.2529 22.5 16.9173 22.5H7.13351C6.79936 22.5 6.53945 22.2296 6.57561 21.9182Z" fill="#52C29D"/>
</symbol>

</svg>
